<svg xmlns="http://www.w3.org/2000/svg" viewBox="0 0 150.37 137.56"><defs><style>.cls-1{fill:#c00b23;stroke:#c00b23;stroke-miterlimit:10;}</style></defs><title>arrow</title><g id="Layer_2" data-name="Layer 2"><g id="Layer_1-2" data-name="Layer 1"><path class="cls-1" d="M143.57.58l6.22,1.09c-.05.29-5.22,29.06-23.88,59.16-17.25,27.83-50.47,60.73-107.36,70a1.49,1.49,0,0,1-1.5-.7,1.55,1.55,0,0,1,0-1.65l12.39-12.09L5.66,133.65c5.37.1,15.74-2.65,38.78-1.93l-3,5.3C13.9,134.1,2.14,136.69,2,136.69a1.55,1.55,0,0,1-1.1-2.63L37.4,104.51a1.55,1.55,0,0,1,2.43,1.89L21.39,127.26c54.21-8.1,85.25-41.28,101.82-68C141.59,29.69,143.52.86,143.57.58Z"/></g></g></svg>