<svg xmlns="http://www.w3.org/2000/svg" viewBox="0 0 183.45 80"><defs><style>.cls-1{fill:#c00b23;}.cls-2{fill:#5f5d5e;}</style></defs><title>logo</title><g id="Layer_2" data-name="Layer 2"><g id="Layer_1-2" data-name="Layer 1"><path class="cls-1" d="M19.67,69.54v1.61H21.1v.57H19.67v4.11a1.34,1.34,0,0,0,.23.88.8.8,0,0,0,.62.26h.26l.29,0,.11.51a1.51,1.51,0,0,1-.36.11,1.83,1.83,0,0,1-.42,0,1.35,1.35,0,0,1-1.06-.42,1.93,1.93,0,0,1-.38-1.33V71.72H17.82v-.57h1.12V69.54Z"/><path class="cls-1" d="M27.31,71.75l-.51,0a1.66,1.66,0,0,0-1.11.37,2,2,0,0,0-.62,1v4.35h-.72V71.15H25l.09,1v.07a2.24,2.24,0,0,1,.75-.91A1.92,1.92,0,0,1,27,71l.25,0,.2,0Z"/><path class="cls-1" d="M32.74,77.58a2.63,2.63,0,0,1-2-.87,3.17,3.17,0,0,1-.78-2.22v-.32a3.23,3.23,0,0,1,.8-2.25,2.54,2.54,0,0,1,2-.88,2.28,2.28,0,0,1,1.83.74,2.9,2.9,0,0,1,.65,2v.54H30.63v.19a2.78,2.78,0,0,0,.56,1.79,1.87,1.87,0,0,0,1.55.71,3,3,0,0,0,1.09-.19,2.49,2.49,0,0,0,.83-.51l.31.48a2.8,2.8,0,0,1-.9.58,3.58,3.58,0,0,1-1.33.23m-.07-5.95a1.78,1.78,0,0,0-1.36.58,2.45,2.45,0,0,0-.62,1.46l0,0h3.72v-.14A2.11,2.11,0,0,0,34,72.17a1.59,1.59,0,0,0-1.3-.54"/><path class="cls-1" d="M42.55,77.45c0-.22-.08-.42-.1-.58a3.62,3.62,0,0,1,0-.49,2.62,2.62,0,0,1-.94.85,2.82,2.82,0,0,1-1.39.34,2.09,2.09,0,0,1-1.48-.5,1.74,1.74,0,0,1-.53-1.34,1.6,1.6,0,0,1,.76-1.37,3.44,3.44,0,0,1,2-.52h1.6v-.79A1.34,1.34,0,0,0,42,72a1.85,1.85,0,0,0-1.24-.38,1.89,1.89,0,0,0-1.19.35,1.07,1.07,0,0,0-.45.88h-.67v0A1.46,1.46,0,0,1,39,71.57,2.65,2.65,0,0,1,40.77,71a2.61,2.61,0,0,1,1.72.53,1.85,1.85,0,0,1,.65,1.52v3.1a5.34,5.34,0,0,0,0,.65,4.41,4.41,0,0,0,.13.63ZM40.16,77a2.64,2.64,0,0,0,1.44-.38,1.94,1.94,0,0,0,.82-1V74.39h-1.6a2.44,2.44,0,0,0-1.45.4,1.19,1.19,0,0,0-.57,1,1.09,1.09,0,0,0,.36.86,1.44,1.44,0,0,0,1,.32"/><path class="cls-1" d="M48,69.54v1.61h1.43v.57H48v4.11a1.32,1.32,0,0,0,.23.88.8.8,0,0,0,.62.26h.25l.3,0,.11.51a1.48,1.48,0,0,1-.36.11,1.79,1.79,0,0,1-.42,0,1.36,1.36,0,0,1-1.07-.42,1.93,1.93,0,0,1-.38-1.33V71.72H46.17v-.57h1.12V69.54Z"/><path class="cls-1" d="M60.49,71.75l-.51,0a1.68,1.68,0,0,0-1.11.37,2,2,0,0,0-.62,1v4.35h-.72V71.15h.63l.09,1v.07a2.24,2.24,0,0,1,.76-.91A1.92,1.92,0,0,1,60.13,71l.25,0,.2,0Z"/><path class="cls-1" d="M63.66,77.46h.71V71.15h-.71Zm0-8.11h.71v-1h-.71Z"/><path class="cls-1" d="M67.94,74.35a4.05,4.05,0,0,1,.66-2.42,2.14,2.14,0,0,1,1.83-.9,2.41,2.41,0,0,1,1.2.29,2.37,2.37,0,0,1,.84.82l.1-1h.58v6.34a2.45,2.45,0,0,1-.68,1.86,2.72,2.72,0,0,1-1.94.66,4.92,4.92,0,0,1-1-.11,4.11,4.11,0,0,1-.93-.3l.14-.59a3.6,3.6,0,0,0,.83.28,4.51,4.51,0,0,0,.94.09A1.93,1.93,0,0,0,72,78.9a1.91,1.91,0,0,0,.47-1.41V76.6a2.18,2.18,0,0,1-.84.72,2.55,2.55,0,0,1-1.17.26,2.18,2.18,0,0,1-1.82-.85,3.59,3.59,0,0,1-.66-2.26Zm.72.12a3.12,3.12,0,0,0,.47,1.82,1.63,1.63,0,0,0,1.43.67,2.09,2.09,0,0,0,1.15-.3,2,2,0,0,0,.72-.82v-3a2.23,2.23,0,0,0-.7-.86,1.92,1.92,0,0,0-1.16-.34,1.59,1.59,0,0,0-1.43.76,3.64,3.64,0,0,0-.48,2Z"/><path class="cls-1" d="M77.61,72.22a2.41,2.41,0,0,1,.87-.88A2.47,2.47,0,0,1,79.73,71a2,2,0,0,1,1.58.61,2.85,2.85,0,0,1,.55,1.92v3.89h-.72v-3.9a2.11,2.11,0,0,0-.42-1.47,1.5,1.5,0,0,0-1.15-.45,2,2,0,0,0-2,1.32v4.5h-.72V68.36h.72Z"/><path class="cls-1" d="M86.7,69.54v1.61h1.43v.57H86.7v4.11a1.32,1.32,0,0,0,.23.88.8.8,0,0,0,.61.26h.26l.29,0,.11.51a1.49,1.49,0,0,1-.36.11,1.82,1.82,0,0,1-.42,0,1.36,1.36,0,0,1-1.07-.42A1.94,1.94,0,0,1,86,75.83V71.72H84.85v-.57H86V69.54Z"/><path class="cls-1" d="M96.7,77.45V71.72H95.62v-.57H96.7v-.92a2,2,0,0,1,.49-1.46,1.79,1.79,0,0,1,1.37-.52l.4,0,.42.08-.09.58-.3-.05-.35,0a1.12,1.12,0,0,0-.9.36,1.47,1.47,0,0,0-.32,1v.92h1.47v.57H97.42v5.74Z"/><path class="cls-1" d="M106.25,76.43a2.19,2.19,0,0,1-.84.85,2.49,2.49,0,0,1-1.25.3,2,2,0,0,1-1.6-.68,3.15,3.15,0,0,1-.58-2.1V71.15h.72v3.66a2.67,2.67,0,0,0,.4,1.66,1.4,1.4,0,0,0,1.15.5,2.16,2.16,0,0,0,1.29-.35,1.89,1.89,0,0,0,.68-1v-4.5h.72v6.31h-.64Z"/><path class="cls-1" d="M111.81,69.54v1.61h1.43v.57h-1.43v4.11a1.34,1.34,0,0,0,.23.88.8.8,0,0,0,.62.26h.25l.29,0,.11.51a1.47,1.47,0,0,1-.36.11,1.8,1.8,0,0,1-.42,0,1.35,1.35,0,0,1-1.06-.42,1.92,1.92,0,0,1-.38-1.33V71.72H110v-.57h1.12V69.54Z"/><path class="cls-1" d="M120.73,76.43a2.18,2.18,0,0,1-.84.85,2.48,2.48,0,0,1-1.24.3A2,2,0,0,1,117,76.9a3.17,3.17,0,0,1-.58-2.1V71.15h.72v3.66a2.64,2.64,0,0,0,.4,1.66,1.4,1.4,0,0,0,1.15.5,2.15,2.15,0,0,0,1.29-.35,1.91,1.91,0,0,0,.68-1v-4.5h.72v6.31h-.64Z"/><path class="cls-1" d="M128.14,71.75l-.51,0a1.68,1.68,0,0,0-1.11.37,2,2,0,0,0-.62,1v4.35h-.72V71.15h.63l.09,1v.07a2.23,2.23,0,0,1,.76-.91,1.92,1.92,0,0,1,1.12-.33l.26,0,.2,0Z"/><path class="cls-1" d="M133.56,77.58a2.64,2.64,0,0,1-2-.87,3.17,3.17,0,0,1-.79-2.22v-.32a3.23,3.23,0,0,1,.8-2.25,2.55,2.55,0,0,1,2-.88,2.28,2.28,0,0,1,1.83.74,2.9,2.9,0,0,1,.65,2v.54h-4.52v.19a2.8,2.8,0,0,0,.56,1.79,1.87,1.87,0,0,0,1.55.71,3,3,0,0,0,1.09-.19,2.46,2.46,0,0,0,.83-.51l.31.48a2.76,2.76,0,0,1-.9.58,3.58,3.58,0,0,1-1.33.23m-.07-5.95a1.77,1.77,0,0,0-1.36.58,2.41,2.41,0,0,0-.62,1.46l0,0h3.72v-.14a2.09,2.09,0,0,0-.45-1.39,1.6,1.6,0,0,0-1.3-.54"/><path class="cls-1" d="M149.33,74.47a3.55,3.55,0,0,1-.66,2.26,2.18,2.18,0,0,1-1.82.84,2.56,2.56,0,0,1-1.23-.28,2.22,2.22,0,0,1-.84-.79l-.12.95h-.57V68.36h.72v3.75a2.32,2.32,0,0,1,.83-.8,2.39,2.39,0,0,1,1.19-.28,2.15,2.15,0,0,1,1.83.9,4,4,0,0,1,.66,2.41Zm-.73-.12a3.62,3.62,0,0,0-.48-2,1.58,1.58,0,0,0-1.42-.76,1.92,1.92,0,0,0-1.2.36,2.16,2.16,0,0,0-.68.91v2.88a2,2,0,0,0,.71.86,2.1,2.1,0,0,0,1.19.31,1.62,1.62,0,0,0,1.42-.67,3.08,3.08,0,0,0,.47-1.82Z"/><path class="cls-1" d="M155.75,71.75l-.51,0a1.67,1.67,0,0,0-1.11.37,2,2,0,0,0-.62,1v4.35h-.72V71.15h.63l.09,1v.07a2.23,2.23,0,0,1,.76-.91,1.92,1.92,0,0,1,1.13-.33l.25,0,.2,0Z"/><path class="cls-1" d="M158.91,77.46h.71V71.15h-.71Zm0-8.11h.71v-1h-.71Z"/><path class="cls-1" d="M163.2,74.35a4,4,0,0,1,.66-2.42,2.13,2.13,0,0,1,1.83-.9,2.41,2.41,0,0,1,1.2.29,2.35,2.35,0,0,1,.84.82l.1-1h.58v6.34a2.45,2.45,0,0,1-.68,1.86,2.7,2.7,0,0,1-1.94.66,4.88,4.88,0,0,1-1-.11,4.19,4.19,0,0,1-.93-.3L164,79a3.69,3.69,0,0,0,.83.28,4.48,4.48,0,0,0,.94.09,1.94,1.94,0,0,0,1.43-.48,1.91,1.91,0,0,0,.47-1.41V76.6a2.21,2.21,0,0,1-.84.72,2.57,2.57,0,0,1-1.17.26,2.17,2.17,0,0,1-1.82-.85,3.57,3.57,0,0,1-.66-2.26Zm.72.12a3.1,3.1,0,0,0,.47,1.82,1.63,1.63,0,0,0,1.42.67,2.1,2.1,0,0,0,1.15-.3,2,2,0,0,0,.72-.82v-3A2.25,2.25,0,0,0,167,72a1.93,1.93,0,0,0-1.16-.34,1.59,1.59,0,0,0-1.43.76,3.6,3.6,0,0,0-.48,2Z"/><path class="cls-1" d="M172.87,72.22a2.41,2.41,0,0,1,.87-.88A2.48,2.48,0,0,1,175,71a2,2,0,0,1,1.57.61,2.86,2.86,0,0,1,.55,1.92v3.89h-.72v-3.9a2.13,2.13,0,0,0-.42-1.47,1.5,1.5,0,0,0-1.15-.45,2,2,0,0,0-2,1.32v4.5h-.72V68.36h.72Z"/><path class="cls-1" d="M182,69.54v1.61h1.43v.57H182v4.11a1.32,1.32,0,0,0,.23.88.8.8,0,0,0,.61.26h.26l.29,0,.11.51a1.42,1.42,0,0,1-.36.11,1.82,1.82,0,0,1-.42,0,1.36,1.36,0,0,1-1.07-.42,1.94,1.94,0,0,1-.38-1.33V71.72h-1.12v-.57h1.12V69.54Z"/><path class="cls-2" d="M88.06,14.72a16.39,16.39,0,0,0-12,5,16.38,16.38,0,0,0-5,12V60.85a1.27,1.27,0,0,0,1.37,1.37,1.26,1.26,0,0,0,1.34-1.37V31.66a14.22,14.22,0,0,1,24.27-10,13.74,13.74,0,0,1,4.16,10,13.74,13.74,0,0,1-4.16,10,14.14,14.14,0,0,1-20,.11,1.37,1.37,0,0,0-1-.46,1.3,1.3,0,0,0-1,.46,1.29,1.29,0,0,0,0,1.94,16.94,16.94,0,0,0,23.87-.1,16.4,16.4,0,0,0,5-12,16.38,16.38,0,0,0-5-12,16.39,16.39,0,0,0-12-5"/><path class="cls-2" d="M111.27.16a1.27,1.27,0,0,0-1.37,1.37V47.2a1.27,1.27,0,0,0,1.37,1.37,1.26,1.26,0,0,0,1.34-1.37V1.53A1.26,1.26,0,0,0,111.27.16"/><path class="cls-2" d="M180.75,31.55c-1.93-2.11-5-3.18-9-3.18-4.35,0-9.21,0-10.89-1.73a5.07,5.07,0,0,1-1.33-3.74,5.38,5.38,0,0,1,1.36-3.77A5.2,5.2,0,0,1,165,17.46h14.68a1.28,1.28,0,0,0,1.4-1.37,1.29,1.29,0,0,0-1.4-1.37H165a7.91,7.91,0,0,0-6.19,2.61,8,8,0,0,0-2.09,5.57,7.45,7.45,0,0,0,2.12,5.61c2.87,2.71,9.06,2.57,12.32,2.57,3.69,0,6.25.79,7.61,2.34a8,8,0,0,1,0,10.11,7.07,7.07,0,0,1-5.67,2.34h-15a1.27,1.27,0,0,0-1.4,1.33,1.29,1.29,0,0,0,1.4,1.37h15a10.21,10.21,0,0,0,7.66-17"/><path class="cls-2" d="M148.68,14.69a1.26,1.26,0,0,0-1.34,1.37V47.2a1.26,1.26,0,0,0,1.34,1.37,1.27,1.27,0,0,0,1.37-1.37V16.06a1.27,1.27,0,0,0-1.37-1.37"/><path class="cls-2" d="M138.48,47.91a1.32,1.32,0,0,1-.37-2.59,10.09,10.09,0,0,0,5.47-3.81,1.32,1.32,0,1,1,2.25,1.38,12.73,12.73,0,0,1-7,5,1.35,1.35,0,0,1-.38.05"/><path class="cls-2" d="M143.65,41.39a12,12,0,0,1-18.37.29,14.43,14.43,0,0,1-3.81-10.06V16.06a1.26,1.26,0,0,0-1.34-1.37,1.27,1.27,0,0,0-1.37,1.37V31.63a17.07,17.07,0,0,0,4.58,11.95,14.69,14.69,0,0,0,19.53,2.28l.29-.23Z"/><path class="cls-1" d="M55.31,16.62h-8a1.31,1.31,0,0,0,0,2.62h8A3.76,3.76,0,0,1,59.1,23V38.74a3.76,3.76,0,0,1-3.79,3.73H40.5a3.76,3.76,0,0,1-3.79-3.73V36h1.56a3.76,3.76,0,0,1,3.79,3.73v.39a1.31,1.31,0,1,0,2.62,0v-.39a6.39,6.39,0,0,0-6.41-6.36H36.71V28.47h1.56a6.39,6.39,0,0,0,6.41-6.36V6.35A6.39,6.39,0,0,0,38.27,0H23.45A6.39,6.39,0,0,0,17,6.35v7.58a1.31,1.31,0,0,0,2.63,0V6.35a3.76,3.76,0,0,1,3.78-3.73H38.27a3.76,3.76,0,0,1,3.79,3.73V22.11a3.76,3.76,0,0,1-3.79,3.73H36.71V23c0-.88.22-3.73,3-3.73a1.31,1.31,0,1,0,0-2.62c-3.45,0-5.6,2.43-5.62,6.35v2.87H27.64V23a6.39,6.39,0,0,0-6.41-6.35H6.41A6.39,6.39,0,0,0,0,23V38.74a6.39,6.39,0,0,0,6.41,6.36h7.92a1.31,1.31,0,0,0,0-2.63H6.41a3.76,3.76,0,0,1-3.79-3.73V23a3.76,3.76,0,0,1,3.79-3.73H21.23A3.76,3.76,0,0,1,25,23v2.87H23.45A3.88,3.88,0,0,1,19.67,22,1.31,1.31,0,0,0,17,22a6.54,6.54,0,0,0,6.41,6.49H25v4.92H23.45A6.39,6.39,0,0,0,17,39.74V55.5a6.39,6.39,0,0,0,6.41,6.36H38.27a6.39,6.39,0,0,0,6.41-6.36V47.77a1.31,1.31,0,1,0-2.62,0V55.5a3.76,3.76,0,0,1-3.79,3.73H23.45a3.76,3.76,0,0,1-3.78-3.73V39.74A3.76,3.76,0,0,1,23.45,36H25v2.72c0,1.39-.36,3.73-2.8,3.73a1.31,1.31,0,0,0,0,2.63c3.3,0,5.43-2.49,5.43-6.36V36h6.45v2.72a6.39,6.39,0,0,0,6.41,6.36H55.31a6.39,6.39,0,0,0,6.41-6.36V23a6.39,6.39,0,0,0-6.41-6.35M34.09,33.39H27.64V28.47h6.45Z"/></g></g></svg>