<svg xmlns="http://www.w3.org/2000/svg" viewBox="0 0 50 50"><defs></defs><title>phone</title><g id="Layer_2" data-name="Layer 2"><g id="Layer_1-2" data-name="Layer 1"><path class="cls-1" d="M24.56,0A25,25,0,1,0,50,24.57,25,25,0,0,0,24.56,0Zm12,24.44C33.63,30.66,29.44,35.74,23.09,39a10.9,10.9,0,0,1-3,1.1,6.51,6.51,0,0,1-1.91.19c-2.93-.14-5.6-1.2-6.47-4.13-.45-1.53-.48-1.53.81-2.54l.86-.6c1.29-1,2.55-1.9,3.87-2.8a1.27,1.27,0,0,1,1.74.08c.86.75,1.81,1.47,2.72,2.18a1.26,1.26,0,0,0,1.66,0,20.13,20.13,0,0,0,8.2-10.32,1.16,1.16,0,0,0-.49-1.58,10.17,10.17,0,0,1-2.34-2,1.34,1.34,0,0,1-.33-1.11c.42-2.11.83-4.23,1.26-6.33a1.43,1.43,0,0,1,.54-.91,5,5,0,0,1,4-.26,8.09,8.09,0,0,1,4.34,7.12A16.59,16.59,0,0,1,36.56,24.44Z"/></g></g></svg>